# xmcd
#
# Track frame offsets: 
#        150
#        13127
#        30970
#        42110
#        58672
#        69557
#        83960
#        101012
#        123332
#        141015
#        152705
#
# Disc length: 2590 seconds
#
# Revision: 0
# Processed by: cddbd v1.5.1PL0 Copyright (c) Steve Scherf et al.
# Submitted via: ExactAudioCopy v0.95b3
#
DISCID=8a0a1c0b
DTITLE=Headstones - The Oracle of Hi-Fi
DYEAR=2002
DGENRE=Rock
TTITLE0=Whatchagonnado
TTITLE1=Reframed (Every Single Failure)
TTITLE2=Take It
TTITLE3=Nothing Changes
TTITLE4=And It Goes
TTITLE5=Tiny Teddy
TTITLE6=Vanished
TTITLE7=Coffee Cup
TTITLE8=She Just Wants To Cry
TTITLE9=Million $ Moment
TTITLE10=Devil's Road
EXTD=
EXTT0=
EXTT1=
EXTT2=
EXTT3=
EXTT4=
EXTT5=
EXTT6=
EXTT7=
EXTT8=
EXTT9=
EXTT10=
PLAYORDER=
